name ./resultDataOpenSim/trcMotMarkerGrf/sub10/grf-12-04.mot
datacolumns 19
datarows 15
range 0.95600000 1.01200000
endheader

                time	     ground_force_vx	     ground_force_vy	     ground_force_vz	     ground_force_px	     ground_force_py	     ground_force_pz	   l_ground_force_vx	   l_ground_force_vy	   l_ground_force_vz	   l_ground_force_px	   l_ground_force_py	   l_ground_force_pz	     ground_torque_x	     ground_torque_y	     ground_torque_z	   l_ground_torque_x	   l_ground_torque_y	   l_ground_torque_z	
          0.95600000	          0.00000000	          0.00000000	          0.00000000	          0.00000000	          0.00000000	          0.00000000	         22.27953510	        485.19536395	         32.78524274	         -0.01500119	         -0.02500000	         -0.14135819	          0.00000000	          0.00000000	          0.00000000	          0.00000000	         -2.08234126	          0.00000000	
          0.96000000	          0.00000000	          0.00000000	          0.00000000	          0.00000000	          0.00000000	          0.00000000	         24.91133090	        490.92890902	         32.64564688	         -0.01445701	         -0.02500040	         -0.14097233	          0.00000000	          0.00000000	          0.00000000	          0.00000000	         -2.14341019	          0.00000000	
          0.96400000	          0.00000000	          0.00000000	          0.00000000	          0.00000000	          0.00000000	          0.00000000	         27.80564592	        497.49213579	         32.46426176	         -0.01387325	         -0.02500100	         -0.14058064	          0.00000000	          0.00000000	          0.00000000	          0.00000000	         -2.22572282	          0.00000000	
          0.96800000	          0.00000000	          0.00000000	          0.00000000	          0.00000000	          0.00000000	          0.00000000	         31.02493064	        504.80028805	         32.37361460	         -0.01324338	         -0.02500100	         -0.14021463	          0.00000000	          0.00000000	          0.00000000	          0.00000000	         -2.32343381	          0.00000000	
          0.97200000	          0.00000000	          0.00000000	          0.00000000	          0.00000000	          0.00000000	          0.00000000	         34.58028289	        512.81872819	         32.48610659	         -0.01258917	         -0.02500100	         -0.13989237	          0.00000000	          0.00000000	          0.00000000	          0.00000000	         -2.43181250	          0.00000000	
          0.97600000	          0.00000000	          0.00000000	          0.00000000	          0.00000000	          0.00000000	          0.00000000	         38.43082466	        521.59290408	         32.85515136	         -0.01195429	         -0.02500124	         -0.13962992	          0.00000000	          0.00000000	          0.00000000	          0.00000000	         -2.54809965	          0.00000000	
          0.98000000	          0.00000000	          0.00000000	          0.00000000	          0.00000000	          0.00000000	          0.00000000	         42.51158076	        531.21424559	         33.47262266	         -0.01137981	         -0.02500200	         -0.13943401	          0.00000000	          0.00000000	          0.00000000	          0.00000000	         -2.67163349	          0.00000000	
          0.98400000	          0.00000000	          0.00000000	          0.00000000	          0.00000000	          0.00000000	          0.00000000	         46.76508050	        541.74553755	         34.29720708	         -0.01088597	         -0.02500200	         -0.13929758	          0.00000000	          0.00000000	          0.00000000	          0.00000000	         -2.80328780	          0.00000000	
          0.98800000	          0.00000000	          0.00000000	          0.00000000	          0.00000000	          0.00000000	          0.00000000	         51.15774171	        553.17970336	         35.27878160	         -0.01045656	         -0.02500200	         -0.13918839	          0.00000000	          0.00000000	          0.00000000	          0.00000000	         -2.94446458	          0.00000000	
          0.99200000	          0.00000000	          0.00000000	          0.00000000	          0.00000000	          0.00000000	          0.00000000	         55.67810239	        565.43081001	         36.36812210	         -0.01003192	         -0.02500200	         -0.13904827	          0.00000000	          0.00000000	          0.00000000	          0.00000000	         -3.09602696	          0.00000000	
          0.99600000	          0.00000000	          0.00000000	          0.00000000	          0.00000000	          0.00000000	          0.00000000	         60.33042133	        578.30137571	         37.51920805	         -0.00955715	         -0.02500200	         -0.13884782	          0.00000000	          0.00000000	          0.00000000	          0.00000000	         -3.25759208	          0.00000000	
          1.00000000	          0.00000000	          0.00000000	          0.00000000	          0.00000000	          0.00000000	          0.00000000	         65.12701690	        591.48239072	         38.68359160	         -0.00898222	         -0.02500200	         -0.13857441	          0.00000000	          0.00000000	          0.00000000	          0.00000000	         -3.42747483	          0.00000000	
          1.00400000	          0.00000000	          0.00000000	          0.00000000	          0.00000000	          0.00000000	          0.00000000	         70.07150805	        604.65702615	         39.81369581	         -0.00829494	         -0.02500296	         -0.13824882	          0.00000000	          0.00000000	          0.00000000	          0.00000000	         -3.60327568	          0.00000000	
          1.00800000	          0.00000000	          0.00000000	          0.00000000	          0.00000000	          0.00000000	          0.00000000	         75.14427593	        617.62095628	         40.87661453	         -0.00754995	         -0.02500269	         -0.13791331	          0.00000000	          0.00000000	          0.00000000	          0.00000000	         -3.78277612	          0.00000000	
          1.01200000	          0.00000000	          0.00000000	          0.00000000	          0.00000000	          0.00000000	          0.00000000	         80.29733373	        630.31327358	         41.84385528	         -0.00679719	         -0.02500208	         -0.13759437	          0.00000000	          0.00000000	          0.00000000	          0.00000000	         -3.96466278	          0.00000000	
